<svg xmlns="http://www.w3.org/2000/svg" style="cursor: move;" width="1920" height="924"><g transform="translate(-1473.3093379282154,-647.5682500995415) scale(2.3359347892262314)"><path class="link" style="stroke-width: 0.5px; stroke-opacity: 1; stroke: rgb(80, 80, 80); opacity: 1;" marker-end="" d="M735,345, 888,435"></path><path class="link" style="stroke-width: 0.5px; stroke-opacity: 1; stroke: rgb(80, 80, 80); opacity: 1;" marker-end="" d="M735,345, 888,453"></path><path class="link" style="stroke-width: 0.5px; stroke-opacity: 1; stroke: rgb(80, 80, 80); opacity: 1;" marker-end="" d="M735,345, 888,471"></path><path class="link" style="stroke-width: 0.5px; stroke-opacity: 1; stroke: rgb(80, 80, 80); opacity: 1;" marker-end="" d="M735,345, 888,489"></path><path class="link" style="stroke-width: 0.5px; stroke-opacity: 1; stroke: rgb(80, 80, 80); opacity: 1;" marker-end="" d="M735,363, 888,435"></path><path class="link" style="stroke-width: 0.5px; stroke-opacity: 1; stroke: rgb(80, 80, 80); opacity: 1;" marker-end="" d="M735,363, 888,453"></path><path class="link" style="stroke-width: 0.5px; stroke-opacity: 1; stroke: rgb(80, 80, 80); opacity: 1;" marker-end="" d="M735,363, 888,471"></path><path class="link" style="stroke-width: 0.5px; stroke-opacity: 1; stroke: rgb(80, 80, 80); opacity: 1;" marker-end="" d="M735,363, 888,489"></path><path class="link" style="stroke-width: 0.5px; stroke-opacity: 1; stroke: rgb(80, 80, 80); opacity: 1;" marker-end="" d="M735,381, 888,435"></path><path class="link" style="stroke-width: 0.5px; stroke-opacity: 1; stroke: rgb(80, 80, 80); opacity: 1;" marker-end="" d="M735,381, 888,453"></path><path class="link" style="stroke-width: 0.5px; stroke-opacity: 1; stroke: rgb(80, 80, 80); opacity: 1;" marker-end="" d="M735,381, 888,471"></path><path class="link" style="stroke-width: 0.5px; stroke-opacity: 1; stroke: rgb(80, 80, 80); opacity: 1;" marker-end="" d="M735,381, 888,489"></path><path class="link" style="stroke-width: 0.5px; stroke-opacity: 1; stroke: rgb(80, 80, 80); opacity: 1;" marker-end="" d="M735,399, 888,435"></path><path class="link" style="stroke-width: 0.5px; stroke-opacity: 1; stroke: rgb(80, 80, 80); opacity: 1;" marker-end="" d="M735,399, 888,453"></path><path class="link" style="stroke-width: 0.5px; stroke-opacity: 1; stroke: rgb(80, 80, 80); opacity: 1;" marker-end="" d="M735,399, 888,471"></path><path class="link" style="stroke-width: 0.5px; stroke-opacity: 1; stroke: rgb(80, 80, 80); opacity: 1;" marker-end="" d="M735,399, 888,489"></path><path class="link" style="stroke-width: 0.5px; stroke-opacity: 1; stroke: rgb(80, 80, 80); opacity: 1;" marker-end="" d="M735,417, 888,435"></path><path class="link" style="stroke-width: 0.5px; stroke-opacity: 1; stroke: rgb(80, 80, 80); opacity: 1;" marker-end="" d="M735,417, 888,453"></path><path class="link" style="stroke-width: 0.5px; stroke-opacity: 1; stroke: rgb(80, 80, 80); opacity: 1;" marker-end="" d="M735,417, 888,471"></path><path class="link" style="stroke-width: 0.5px; stroke-opacity: 1; stroke: rgb(80, 80, 80); opacity: 1;" marker-end="" d="M735,417, 888,489"></path><path class="link" style="stroke-width: 0.5px; stroke-opacity: 1; stroke: rgb(80, 80, 80); opacity: 1;" marker-end="" d="M735,435, 888,435"></path><path class="link" style="stroke-width: 0.5px; stroke-opacity: 1; stroke: rgb(80, 80, 80); opacity: 1;" marker-end="" d="M735,435, 888,453"></path><path class="link" style="stroke-width: 0.5px; stroke-opacity: 1; stroke: rgb(80, 80, 80); opacity: 1;" marker-end="" d="M735,435, 888,471"></path><path class="link" style="stroke-width: 0.5px; stroke-opacity: 1; stroke: rgb(80, 80, 80); opacity: 1;" marker-end="" d="M735,435, 888,489"></path><path class="link" style="stroke-width: 0.5px; stroke-opacity: 1; stroke: rgb(80, 80, 80); opacity: 1;" marker-end="" d="M735,453, 888,435"></path><path class="link" style="stroke-width: 0.5px; stroke-opacity: 1; stroke: rgb(80, 80, 80); opacity: 1;" marker-end="" d="M735,453, 888,453"></path><path class="link" style="stroke-width: 0.5px; stroke-opacity: 1; stroke: rgb(80, 80, 80); opacity: 1;" marker-end="" d="M735,453, 888,471"></path><path class="link" style="stroke-width: 0.5px; stroke-opacity: 1; stroke: rgb(80, 80, 80); opacity: 1;" marker-end="" d="M735,453, 888,489"></path><path class="link" style="stroke-width: 0.5px; stroke-opacity: 1; stroke: rgb(80, 80, 80); opacity: 1;" marker-end="" d="M735,471, 888,435"></path><path class="link" style="stroke-width: 0.5px; stroke-opacity: 1; stroke: rgb(80, 80, 80); opacity: 1;" marker-end="" d="M735,471, 888,453"></path><path class="link" style="stroke-width: 0.5px; stroke-opacity: 1; stroke: rgb(80, 80, 80); opacity: 1;" marker-end="" d="M735,471, 888,471"></path><path class="link" style="stroke-width: 0.5px; stroke-opacity: 1; stroke: rgb(80, 80, 80); opacity: 1;" marker-end="" d="M735,471, 888,489"></path><path class="link" style="stroke-width: 0.5px; stroke-opacity: 1; stroke: rgb(80, 80, 80); opacity: 1;" marker-end="" d="M735,489, 888,435"></path><path class="link" style="stroke-width: 0.5px; stroke-opacity: 1; stroke: rgb(80, 80, 80); opacity: 1;" marker-end="" d="M735,489, 888,453"></path><path class="link" style="stroke-width: 0.5px; stroke-opacity: 1; stroke: rgb(80, 80, 80); opacity: 1;" marker-end="" d="M735,489, 888,471"></path><path class="link" style="stroke-width: 0.5px; stroke-opacity: 1; stroke: rgb(80, 80, 80); opacity: 1;" marker-end="" d="M735,489, 888,489"></path><path class="link" style="stroke-width: 0.5px; stroke-opacity: 1; stroke: rgb(80, 80, 80); opacity: 1;" marker-end="" d="M735,507, 888,435"></path><path class="link" style="stroke-width: 0.5px; stroke-opacity: 1; stroke: rgb(80, 80, 80); opacity: 1;" marker-end="" d="M735,507, 888,453"></path><path class="link" style="stroke-width: 0.5px; stroke-opacity: 1; stroke: rgb(80, 80, 80); opacity: 1;" marker-end="" d="M735,507, 888,471"></path><path class="link" style="stroke-width: 0.5px; stroke-opacity: 1; stroke: rgb(80, 80, 80); opacity: 1;" marker-end="" d="M735,507, 888,489"></path><path class="link" style="stroke-width: 0.5px; stroke-opacity: 1; stroke: rgb(80, 80, 80); opacity: 1;" marker-end="" d="M735,525, 888,435"></path><path class="link" style="stroke-width: 0.5px; stroke-opacity: 1; stroke: rgb(80, 80, 80); opacity: 1;" marker-end="" d="M735,525, 888,453"></path><path class="link" style="stroke-width: 0.5px; stroke-opacity: 1; stroke: rgb(80, 80, 80); opacity: 1;" marker-end="" d="M735,525, 888,471"></path><path class="link" style="stroke-width: 0.5px; stroke-opacity: 1; stroke: rgb(80, 80, 80); opacity: 1;" marker-end="" d="M735,525, 888,489"></path><path class="link" style="stroke-width: 0.5px; stroke-opacity: 1; stroke: rgb(80, 80, 80); opacity: 1;" marker-end="" d="M735,543, 888,435"></path><path class="link" style="stroke-width: 0.5px; stroke-opacity: 1; stroke: rgb(80, 80, 80); opacity: 1;" marker-end="" d="M735,543, 888,453"></path><path class="link" style="stroke-width: 0.5px; stroke-opacity: 1; stroke: rgb(80, 80, 80); opacity: 1;" marker-end="" d="M735,543, 888,471"></path><path class="link" style="stroke-width: 0.5px; stroke-opacity: 1; stroke: rgb(80, 80, 80); opacity: 1;" marker-end="" d="M735,543, 888,489"></path><path class="link" style="stroke-width: 0.5px; stroke-opacity: 1; stroke: rgb(80, 80, 80); opacity: 1;" marker-end="" d="M888,417, 1041,381"></path><path class="link" style="stroke-width: 0.5px; stroke-opacity: 1; stroke: rgb(80, 80, 80); opacity: 1;" marker-end="" d="M888,417, 1041,399"></path><path class="link" style="stroke-width: 0.5px; stroke-opacity: 1; stroke: rgb(80, 80, 80); opacity: 1;" marker-end="" d="M888,417, 1041,417"></path><path class="link" style="stroke-width: 0.5px; stroke-opacity: 1; stroke: rgb(80, 80, 80); opacity: 1;" marker-end="" d="M888,417, 1041,435"></path><path class="link" style="stroke-width: 0.5px; stroke-opacity: 1; stroke: rgb(80, 80, 80); opacity: 1;" marker-end="" d="M888,417, 1041,453"></path><path class="link" style="stroke-width: 0.5px; stroke-opacity: 1; stroke: rgb(80, 80, 80); opacity: 1;" marker-end="" d="M888,417, 1041,471"></path><path class="link" style="stroke-width: 0.5px; stroke-opacity: 1; stroke: rgb(80, 80, 80); opacity: 1;" marker-end="" d="M888,417, 1041,489"></path><path class="link" style="stroke-width: 0.5px; stroke-opacity: 1; stroke: rgb(80, 80, 80); opacity: 1;" marker-end="" d="M888,417, 1041,507"></path><path class="link" style="stroke-width: 0.5px; stroke-opacity: 1; stroke: rgb(80, 80, 80); opacity: 1;" marker-end="" d="M888,417, 1041,525"></path><path class="link" style="stroke-width: 0.5px; stroke-opacity: 1; stroke: rgb(80, 80, 80); opacity: 1;" marker-end="" d="M888,435, 1041,381"></path><path class="link" style="stroke-width: 0.5px; stroke-opacity: 1; stroke: rgb(80, 80, 80); opacity: 1;" marker-end="" d="M888,435, 1041,399"></path><path class="link" style="stroke-width: 0.5px; stroke-opacity: 1; stroke: rgb(80, 80, 80); opacity: 1;" marker-end="" d="M888,435, 1041,417"></path><path class="link" style="stroke-width: 0.5px; stroke-opacity: 1; stroke: rgb(80, 80, 80); opacity: 1;" marker-end="" d="M888,435, 1041,435"></path><path class="link" style="stroke-width: 0.5px; stroke-opacity: 1; stroke: rgb(80, 80, 80); opacity: 1;" marker-end="" d="M888,435, 1041,453"></path><path class="link" style="stroke-width: 0.5px; stroke-opacity: 1; stroke: rgb(80, 80, 80); opacity: 1;" marker-end="" d="M888,435, 1041,471"></path><path class="link" style="stroke-width: 0.5px; stroke-opacity: 1; stroke: rgb(80, 80, 80); opacity: 1;" marker-end="" d="M888,435, 1041,489"></path><path class="link" style="stroke-width: 0.5px; stroke-opacity: 1; stroke: rgb(80, 80, 80); opacity: 1;" marker-end="" d="M888,435, 1041,507"></path><path class="link" style="stroke-width: 0.5px; stroke-opacity: 1; stroke: rgb(80, 80, 80); opacity: 1;" marker-end="" d="M888,435, 1041,525"></path><path class="link" style="stroke-width: 0.5px; stroke-opacity: 1; stroke: rgb(80, 80, 80); opacity: 1;" marker-end="" d="M888,453, 1041,381"></path><path class="link" style="stroke-width: 0.5px; stroke-opacity: 1; stroke: rgb(80, 80, 80); opacity: 1;" marker-end="" d="M888,453, 1041,399"></path><path class="link" style="stroke-width: 0.5px; stroke-opacity: 1; stroke: rgb(80, 80, 80); opacity: 1;" marker-end="" d="M888,453, 1041,417"></path><path class="link" style="stroke-width: 0.5px; stroke-opacity: 1; stroke: rgb(80, 80, 80); opacity: 1;" marker-end="" d="M888,453, 1041,435"></path><path class="link" style="stroke-width: 0.5px; stroke-opacity: 1; stroke: rgb(80, 80, 80); opacity: 1;" marker-end="" d="M888,453, 1041,453"></path><path class="link" style="stroke-width: 0.5px; stroke-opacity: 1; stroke: rgb(80, 80, 80); opacity: 1;" marker-end="" d="M888,453, 1041,471"></path><path class="link" style="stroke-width: 0.5px; stroke-opacity: 1; stroke: rgb(80, 80, 80); opacity: 1;" marker-end="" d="M888,453, 1041,489"></path><path class="link" style="stroke-width: 0.5px; stroke-opacity: 1; stroke: rgb(80, 80, 80); opacity: 1;" marker-end="" d="M888,453, 1041,507"></path><path class="link" style="stroke-width: 0.5px; stroke-opacity: 1; stroke: rgb(80, 80, 80); opacity: 1;" marker-end="" d="M888,453, 1041,525"></path><path class="link" style="stroke-width: 0.5px; stroke-opacity: 1; stroke: rgb(80, 80, 80); opacity: 1;" marker-end="" d="M888,471, 1041,381"></path><path class="link" style="stroke-width: 0.5px; stroke-opacity: 1; stroke: rgb(80, 80, 80); opacity: 1;" marker-end="" d="M888,471, 1041,399"></path><path class="link" style="stroke-width: 0.5px; stroke-opacity: 1; stroke: rgb(80, 80, 80); opacity: 1;" marker-end="" d="M888,471, 1041,417"></path><path class="link" style="stroke-width: 0.5px; stroke-opacity: 1; stroke: rgb(80, 80, 80); opacity: 1;" marker-end="" d="M888,471, 1041,435"></path><path class="link" style="stroke-width: 0.5px; stroke-opacity: 1; stroke: rgb(80, 80, 80); opacity: 1;" marker-end="" d="M888,471, 1041,453"></path><path class="link" style="stroke-width: 0.5px; stroke-opacity: 1; stroke: rgb(80, 80, 80); opacity: 1;" marker-end="" d="M888,471, 1041,471"></path><path class="link" style="stroke-width: 0.5px; stroke-opacity: 1; stroke: rgb(80, 80, 80); opacity: 1;" marker-end="" d="M888,471, 1041,489"></path><path class="link" style="stroke-width: 0.5px; stroke-opacity: 1; stroke: rgb(80, 80, 80); opacity: 1;" marker-end="" d="M888,471, 1041,507"></path><path class="link" style="stroke-width: 0.5px; stroke-opacity: 1; stroke: rgb(80, 80, 80); opacity: 1;" marker-end="" d="M888,471, 1041,525"></path><path class="link" style="stroke-width: 0.5px; stroke-opacity: 1; stroke: rgb(80, 80, 80); opacity: 1;" marker-end="" d="M888,489, 1041,381"></path><path class="link" style="stroke-width: 0.5px; stroke-opacity: 1; stroke: rgb(80, 80, 80); opacity: 1;" marker-end="" d="M888,489, 1041,399"></path><path class="link" style="stroke-width: 0.5px; stroke-opacity: 1; stroke: rgb(80, 80, 80); opacity: 1;" marker-end="" d="M888,489, 1041,417"></path><path class="link" style="stroke-width: 0.5px; stroke-opacity: 1; stroke: rgb(80, 80, 80); opacity: 1;" marker-end="" d="M888,489, 1041,435"></path><path class="link" style="stroke-width: 0.5px; stroke-opacity: 1; stroke: rgb(80, 80, 80); opacity: 1;" marker-end="" d="M888,489, 1041,453"></path><path class="link" style="stroke-width: 0.5px; stroke-opacity: 1; stroke: rgb(80, 80, 80); opacity: 1;" marker-end="" d="M888,489, 1041,471"></path><path class="link" style="stroke-width: 0.5px; stroke-opacity: 1; stroke: rgb(80, 80, 80); opacity: 1;" marker-end="" d="M888,489, 1041,489"></path><path class="link" style="stroke-width: 0.5px; stroke-opacity: 1; stroke: rgb(80, 80, 80); opacity: 1;" marker-end="" d="M888,489, 1041,507"></path><path class="link" style="stroke-width: 0.5px; stroke-opacity: 1; stroke: rgb(80, 80, 80); opacity: 1;" marker-end="" d="M888,489, 1041,525"></path><path class="link" style="stroke-width: 0.5px; stroke-opacity: 1; stroke: rgb(80, 80, 80); opacity: 1;" marker-end="" d="M1194,417, 1347,444"></path><path class="link" style="stroke-width: 0.5px; stroke-opacity: 1; stroke: rgb(80, 80, 80); opacity: 1;" marker-end="" d="M1194,417, 1347,462"></path><path class="link" style="stroke-width: 0.5px; stroke-opacity: 1; stroke: rgb(80, 80, 80); opacity: 1;" marker-end="" d="M1041,363, 1194,435"></path><path class="link" style="stroke-width: 0.5px; stroke-opacity: 1; stroke: rgb(80, 80, 80); opacity: 1;" marker-end="" d="M1041,381, 1194,435"></path><path class="link" style="stroke-width: 0.5px; stroke-opacity: 1; stroke: rgb(80, 80, 80); opacity: 1;" marker-end="" d="M1041,399, 1194,435"></path><path class="link" style="stroke-width: 0.5px; stroke-opacity: 1; stroke: rgb(80, 80, 80); opacity: 1;" marker-end="" d="M1041,417, 1194,435"></path><path class="link" style="stroke-width: 0.5px; stroke-opacity: 1; stroke: rgb(80, 80, 80); opacity: 1;" marker-end="" d="M1041,435, 1194,435"></path><path class="link" style="stroke-width: 0.5px; stroke-opacity: 1; stroke: rgb(80, 80, 80); opacity: 1;" marker-end="" d="M1041,453, 1194,435"></path><path class="link" style="stroke-width: 0.5px; stroke-opacity: 1; stroke: rgb(80, 80, 80); opacity: 1;" marker-end="" d="M1041,471, 1194,435"></path><path class="link" style="stroke-width: 0.5px; stroke-opacity: 1; stroke: rgb(80, 80, 80); opacity: 1;" marker-end="" d="M1041,489, 1194,435"></path><path class="link" style="stroke-width: 0.5px; stroke-opacity: 1; stroke: rgb(80, 80, 80); opacity: 1;" marker-end="" d="M1041,507, 1194,435"></path><path class="link" style="stroke-width: 0.5px; stroke-opacity: 1; stroke: rgb(80, 80, 80); opacity: 1;" marker-end="" d="M1041,525, 1194,435"></path><path class="link" style="stroke-width: 0.5px; stroke-opacity: 1; stroke: rgb(80, 80, 80); opacity: 1;" marker-end="" d="M1194,435, 1347,444"></path><path class="link" style="stroke-width: 0.5px; stroke-opacity: 1; stroke: rgb(80, 80, 80); opacity: 1;" marker-end="" d="M1194,435, 1347,462"></path><path class="link" style="stroke-width: 0.5px; stroke-opacity: 1; stroke: rgb(80, 80, 80); opacity: 1;" marker-end="" d="M1041,363, 1194,453"></path><path class="link" style="stroke-width: 0.5px; stroke-opacity: 1; stroke: rgb(80, 80, 80); opacity: 1;" marker-end="" d="M1041,381, 1194,453"></path><path class="link" style="stroke-width: 0.5px; stroke-opacity: 1; stroke: rgb(80, 80, 80); opacity: 1;" marker-end="" d="M1041,399, 1194,453"></path><path class="link" style="stroke-width: 0.5px; stroke-opacity: 1; stroke: rgb(80, 80, 80); opacity: 1;" marker-end="" d="M1041,417, 1194,453"></path><path class="link" style="stroke-width: 0.5px; stroke-opacity: 1; stroke: rgb(80, 80, 80); opacity: 1;" marker-end="" d="M1041,435, 1194,453"></path><path class="link" style="stroke-width: 0.5px; stroke-opacity: 1; stroke: rgb(80, 80, 80); opacity: 1;" marker-end="" d="M1041,453, 1194,453"></path><path class="link" style="stroke-width: 0.5px; stroke-opacity: 1; stroke: rgb(80, 80, 80); opacity: 1;" marker-end="" d="M1041,471, 1194,453"></path><path class="link" style="stroke-width: 0.5px; stroke-opacity: 1; stroke: rgb(80, 80, 80); opacity: 1;" marker-end="" d="M1041,489, 1194,453"></path><path class="link" style="stroke-width: 0.5px; stroke-opacity: 1; stroke: rgb(80, 80, 80); opacity: 1;" marker-end="" d="M1041,507, 1194,453"></path><path class="link" style="stroke-width: 0.5px; stroke-opacity: 1; stroke: rgb(80, 80, 80); opacity: 1;" marker-end="" d="M1041,525, 1194,453"></path><path class="link" style="stroke-width: 0.5px; stroke-opacity: 1; stroke: rgb(80, 80, 80); opacity: 1;" marker-end="" d="M1194,453, 1347,444"></path><path class="link" style="stroke-width: 0.5px; stroke-opacity: 1; stroke: rgb(80, 80, 80); opacity: 1;" marker-end="" d="M1194,453, 1347,462"></path><path class="link" style="stroke-width: 0.5px; stroke-opacity: 1; stroke: rgb(80, 80, 80); opacity: 1;" marker-end="" d="M1041,363, 1194,471"></path><path class="link" style="stroke-width: 0.5px; stroke-opacity: 1; stroke: rgb(80, 80, 80); opacity: 1;" marker-end="" d="M1041,381, 1194,471"></path><path class="link" style="stroke-width: 0.5px; stroke-opacity: 1; stroke: rgb(80, 80, 80); opacity: 1;" marker-end="" d="M1041,399, 1194,471"></path><path class="link" style="stroke-width: 0.5px; stroke-opacity: 1; stroke: rgb(80, 80, 80); opacity: 1;" marker-end="" d="M1041,417, 1194,471"></path><path class="link" style="stroke-width: 0.5px; stroke-opacity: 1; stroke: rgb(80, 80, 80); opacity: 1;" marker-end="" d="M1041,435, 1194,471"></path><path class="link" style="stroke-width: 0.5px; stroke-opacity: 1; stroke: rgb(80, 80, 80); opacity: 1;" marker-end="" d="M1041,453, 1194,471"></path><path class="link" style="stroke-width: 0.5px; stroke-opacity: 1; stroke: rgb(80, 80, 80); opacity: 1;" marker-end="" d="M1041,471, 1194,471"></path><path class="link" style="stroke-width: 0.5px; stroke-opacity: 1; stroke: rgb(80, 80, 80); opacity: 1;" marker-end="" d="M1041,489, 1194,471"></path><path class="link" style="stroke-width: 0.5px; stroke-opacity: 1; stroke: rgb(80, 80, 80); opacity: 1;" marker-end="" d="M1041,507, 1194,471"></path><path class="link" style="stroke-width: 0.5px; stroke-opacity: 1; stroke: rgb(80, 80, 80); opacity: 1;" marker-end="" d="M1041,525, 1194,471"></path><path class="link" style="stroke-width: 0.5px; stroke-opacity: 1; stroke: rgb(80, 80, 80); opacity: 1;" marker-end="" d="M1194,471, 1347,444"></path><path class="link" style="stroke-width: 0.5px; stroke-opacity: 1; stroke: rgb(80, 80, 80); opacity: 1;" marker-end="" d="M1194,471, 1347,462"></path><path class="link" style="stroke-width: 0.5px; stroke-opacity: 1; stroke: rgb(80, 80, 80); opacity: 1;" marker-end="" d="M1041,363, 1194,489"></path><path class="link" style="stroke-width: 0.5px; stroke-opacity: 1; stroke: rgb(80, 80, 80); opacity: 1;" marker-end="" d="M1041,381, 1194,489"></path><path class="link" style="stroke-width: 0.5px; stroke-opacity: 1; stroke: rgb(80, 80, 80); opacity: 1;" marker-end="" d="M1041,399, 1194,489"></path><path class="link" style="stroke-width: 0.5px; stroke-opacity: 1; stroke: rgb(80, 80, 80); opacity: 1;" marker-end="" d="M1041,417, 1194,489"></path><path class="link" style="stroke-width: 0.5px; stroke-opacity: 1; stroke: rgb(80, 80, 80); opacity: 1;" marker-end="" d="M1041,435, 1194,489"></path><path class="link" style="stroke-width: 0.5px; stroke-opacity: 1; stroke: rgb(80, 80, 80); opacity: 1;" marker-end="" d="M1041,453, 1194,489"></path><path class="link" style="stroke-width: 0.5px; stroke-opacity: 1; stroke: rgb(80, 80, 80); opacity: 1;" marker-end="" d="M1041,471, 1194,489"></path><path class="link" style="stroke-width: 0.5px; stroke-opacity: 1; stroke: rgb(80, 80, 80); opacity: 1;" marker-end="" d="M1041,489, 1194,489"></path><path class="link" style="stroke-width: 0.5px; stroke-opacity: 1; stroke: rgb(80, 80, 80); opacity: 1;" marker-end="" d="M1041,507, 1194,489"></path><path class="link" style="stroke-width: 0.5px; stroke-opacity: 1; stroke: rgb(80, 80, 80); opacity: 1;" marker-end="" d="M1041,525, 1194,489"></path><path class="link" style="stroke-width: 0.5px; stroke-opacity: 1; stroke: rgb(80, 80, 80); opacity: 1;" marker-end="" d="M1194,489, 1347,444"></path><path class="link" style="stroke-width: 0.5px; stroke-opacity: 1; stroke: rgb(80, 80, 80); opacity: 1;" marker-end="" d="M1194,489, 1347,462"></path><path class="link" style="stroke-width: 0.5px; stroke-opacity: 1; stroke: rgb(80, 80, 80); opacity: 1;" marker-end="" d="M735,345, 888,417"></path><path class="link" style="stroke-width: 0.5px; stroke-opacity: 1; stroke: rgb(80, 80, 80); opacity: 1;" marker-end="" d="M735,363, 888,417"></path><path class="link" style="stroke-width: 0.5px; stroke-opacity: 1; stroke: rgb(80, 80, 80); opacity: 1;" marker-end="" d="M735,381, 888,417"></path><path class="link" style="stroke-width: 0.5px; stroke-opacity: 1; stroke: rgb(80, 80, 80); opacity: 1;" marker-end="" d="M735,399, 888,417"></path><path class="link" style="stroke-width: 0.5px; stroke-opacity: 1; stroke: rgb(80, 80, 80); opacity: 1;" marker-end="" d="M735,417, 888,417"></path><path class="link" style="stroke-width: 0.5px; stroke-opacity: 1; stroke: rgb(80, 80, 80); opacity: 1;" marker-end="" d="M735,435, 888,417"></path><path class="link" style="stroke-width: 0.5px; stroke-opacity: 1; stroke: rgb(80, 80, 80); opacity: 1;" marker-end="" d="M735,453, 888,417"></path><path class="link" style="stroke-width: 0.5px; stroke-opacity: 1; stroke: rgb(80, 80, 80); opacity: 1;" marker-end="" d="M735,471, 888,417"></path><path class="link" style="stroke-width: 0.5px; stroke-opacity: 1; stroke: rgb(80, 80, 80); opacity: 1;" marker-end="" d="M735,489, 888,417"></path><path class="link" style="stroke-width: 0.5px; stroke-opacity: 1; stroke: rgb(80, 80, 80); opacity: 1;" marker-end="" d="M735,507, 888,417"></path><path class="link" style="stroke-width: 0.5px; stroke-opacity: 1; stroke: rgb(80, 80, 80); opacity: 1;" marker-end="" d="M735,525, 888,417"></path><path class="link" style="stroke-width: 0.5px; stroke-opacity: 1; stroke: rgb(80, 80, 80); opacity: 1;" marker-end="" d="M735,543, 888,417"></path><path class="link" style="stroke-width: 0.5px; stroke-opacity: 1; stroke: rgb(80, 80, 80); opacity: 1;" marker-end="" d="M888,417, 1041,363"></path><path class="link" style="stroke-width: 0.5px; stroke-opacity: 1; stroke: rgb(80, 80, 80); opacity: 1;" marker-end="" d="M888,435, 1041,363"></path><path class="link" style="stroke-width: 0.5px; stroke-opacity: 1; stroke: rgb(80, 80, 80); opacity: 1;" marker-end="" d="M888,453, 1041,363"></path><path class="link" style="stroke-width: 0.5px; stroke-opacity: 1; stroke: rgb(80, 80, 80); opacity: 1;" marker-end="" d="M888,471, 1041,363"></path><path class="link" style="stroke-width: 0.5px; stroke-opacity: 1; stroke: rgb(80, 80, 80); opacity: 1;" marker-end="" d="M888,489, 1041,363"></path><path class="link" style="stroke-width: 0.5px; stroke-opacity: 1; stroke: rgb(80, 80, 80); opacity: 1;" marker-end="" d="M1041,363, 1194,417"></path><path class="link" style="stroke-width: 0.5px; stroke-opacity: 1; stroke: rgb(80, 80, 80); opacity: 1;" marker-end="" d="M1041,381, 1194,417"></path><path class="link" style="stroke-width: 0.5px; stroke-opacity: 1; stroke: rgb(80, 80, 80); opacity: 1;" marker-end="" d="M1041,399, 1194,417"></path><path class="link" style="stroke-width: 0.5px; stroke-opacity: 1; stroke: rgb(80, 80, 80); opacity: 1;" marker-end="" d="M1041,417, 1194,417"></path><path class="link" style="stroke-width: 0.5px; stroke-opacity: 1; stroke: rgb(80, 80, 80); opacity: 1;" marker-end="" d="M1041,435, 1194,417"></path><path class="link" style="stroke-width: 0.5px; stroke-opacity: 1; stroke: rgb(80, 80, 80); opacity: 1;" marker-end="" d="M1041,453, 1194,417"></path><path class="link" style="stroke-width: 0.5px; stroke-opacity: 1; stroke: rgb(80, 80, 80); opacity: 1;" marker-end="" d="M1041,471, 1194,417"></path><path class="link" style="stroke-width: 0.5px; stroke-opacity: 1; stroke: rgb(80, 80, 80); opacity: 1;" marker-end="" d="M1041,489, 1194,417"></path><path class="link" style="stroke-width: 0.5px; stroke-opacity: 1; stroke: rgb(80, 80, 80); opacity: 1;" marker-end="" d="M1041,507, 1194,417"></path><path class="link" style="stroke-width: 0.5px; stroke-opacity: 1; stroke: rgb(80, 80, 80); opacity: 1;" marker-end="" d="M1041,525, 1194,417"></path><path class="link" style="stroke-width: 0.5px; stroke-opacity: 1; stroke: rgb(80, 80, 80);" marker-end="" d="M888,417, 1041,543"></path><path class="link" style="stroke-width: 0.5px; stroke-opacity: 1; stroke: rgb(80, 80, 80);" marker-end="" d="M888,435, 1041,543"></path><path class="link" style="stroke-width: 0.5px; stroke-opacity: 1; stroke: rgb(80, 80, 80);" marker-end="" d="M888,453, 1041,543"></path><path class="link" style="stroke-width: 0.5px; stroke-opacity: 1; stroke: rgb(80, 80, 80);" marker-end="" d="M888,471, 1041,543"></path><path class="link" style="stroke-width: 0.5px; stroke-opacity: 1; stroke: rgb(80, 80, 80);" marker-end="" d="M888,489, 1041,543"></path><path class="link" style="stroke-width: 0.5px; stroke-opacity: 1; stroke: rgb(80, 80, 80);" marker-end="" d="M1041,543, 1194,417"></path><path class="link" style="stroke-width: 0.5px; stroke-opacity: 1; stroke: rgb(80, 80, 80);" marker-end="" d="M1041,543, 1194,435"></path><path class="link" style="stroke-width: 0.5px; stroke-opacity: 1; stroke: rgb(80, 80, 80);" marker-end="" d="M1041,543, 1194,453"></path><path class="link" style="stroke-width: 0.5px; stroke-opacity: 1; stroke: rgb(80, 80, 80);" marker-end="" d="M1041,543, 1194,471"></path><path class="link" style="stroke-width: 0.5px; stroke-opacity: 1; stroke: rgb(80, 80, 80);" marker-end="" d="M1041,543, 1194,489"></path><path class="link" style="stroke-width: 0.5px; stroke-opacity: 1; stroke: rgb(80, 80, 80);" marker-end="" d="M735,561, 888,417"></path><path class="link" style="stroke-width: 0.5px; stroke-opacity: 1; stroke: rgb(80, 80, 80);" marker-end="" d="M735,561, 888,435"></path><path class="link" style="stroke-width: 0.5px; stroke-opacity: 1; stroke: rgb(80, 80, 80);" marker-end="" d="M735,561, 888,453"></path><path class="link" style="stroke-width: 0.5px; stroke-opacity: 1; stroke: rgb(80, 80, 80);" marker-end="" d="M735,561, 888,471"></path><path class="link" style="stroke-width: 0.5px; stroke-opacity: 1; stroke: rgb(80, 80, 80);" marker-end="" d="M735,561, 888,489"></path><circle r="9" class="node" id="0_0" style="fill: rgb(255, 255, 255); stroke: rgb(10, 10, 10); opacity: 1;" cx="735" cy="345"></circle><circle r="9" class="node" id="0_1" style="fill: rgb(255, 255, 255); stroke: rgb(10, 10, 10); opacity: 1;" cx="735" cy="363"></circle><circle r="9" class="node" id="0_2" style="fill: rgb(255, 255, 255); stroke: rgb(10, 10, 10); opacity: 1;" cx="735" cy="381"></circle><circle r="9" class="node" id="0_3" style="fill: rgb(255, 255, 255); stroke: rgb(10, 10, 10); opacity: 1;" cx="735" cy="399"></circle><circle r="9" class="node" id="0_4" style="fill: rgb(255, 255, 255); stroke: rgb(10, 10, 10); opacity: 1;" cx="735" cy="417"></circle><circle r="9" class="node" id="0_5" style="fill: rgb(255, 255, 255); stroke: rgb(10, 10, 10); opacity: 1;" cx="735" cy="435"></circle><circle r="9" class="node" id="0_6" style="fill: rgb(255, 255, 255); stroke: rgb(10, 10, 10); opacity: 1;" cx="735" cy="453"></circle><circle r="9" class="node" id="0_7" style="fill: rgb(255, 255, 255); stroke: rgb(10, 10, 10); opacity: 1;" cx="735" cy="471"></circle><circle r="9" class="node" id="0_8" style="fill: rgb(255, 255, 255); stroke: rgb(10, 10, 10); opacity: 1;" cx="735" cy="489"></circle><circle r="9" class="node" id="0_9" style="fill: rgb(255, 255, 255); stroke: rgb(10, 10, 10); opacity: 1;" cx="735" cy="507"></circle><circle r="9" class="node" id="0_10" style="fill: rgb(255, 255, 255); stroke: rgb(10, 10, 10); opacity: 1;" cx="735" cy="525"></circle><circle r="9" class="node" id="0_11" style="fill: rgb(255, 255, 255); stroke: rgb(10, 10, 10); opacity: 1;" cx="735" cy="543"></circle><circle r="9" class="node" id="0_12" style="fill: rgb(255, 255, 255); stroke: rgb(10, 10, 10);" cx="735" cy="561"></circle><circle r="9" class="node" id="1_0" style="fill: rgb(255, 255, 255); stroke: rgb(10, 10, 10); opacity: 1;" cx="888" cy="417"></circle><circle r="9" class="node" id="1_1" style="fill: rgb(255, 255, 255); stroke: rgb(10, 10, 10); opacity: 1;" cx="888" cy="435"></circle><circle r="9" class="node" id="1_2" style="fill: rgb(255, 255, 255); stroke: rgb(10, 10, 10); opacity: 1;" cx="888" cy="453"></circle><circle r="9" class="node" id="1_3" style="fill: rgb(255, 255, 255); stroke: rgb(10, 10, 10); opacity: 1;" cx="888" cy="471"></circle><circle r="9" class="node" id="1_4" style="fill: rgb(255, 255, 255); stroke: rgb(10, 10, 10); opacity: 1;" cx="888" cy="489"></circle><circle r="9" class="node" id="2_0" style="fill: rgb(255, 255, 255); stroke: rgb(10, 10, 10); opacity: 1;" cx="1041" cy="363"></circle><circle r="9" class="node" id="2_1" style="fill: rgb(255, 255, 255); stroke: rgb(10, 10, 10); opacity: 1;" cx="1041" cy="381"></circle><circle r="9" class="node" id="2_2" style="fill: rgb(255, 255, 255); stroke: rgb(10, 10, 10); opacity: 1;" cx="1041" cy="399"></circle><circle r="9" class="node" id="2_3" style="fill: rgb(255, 255, 255); stroke: rgb(10, 10, 10); opacity: 1;" cx="1041" cy="417"></circle><circle r="9" class="node" id="2_4" style="fill: rgb(255, 255, 255); stroke: rgb(10, 10, 10); opacity: 1;" cx="1041" cy="435"></circle><circle r="9" class="node" id="2_5" style="fill: rgb(255, 255, 255); stroke: rgb(10, 10, 10); opacity: 1;" cx="1041" cy="453"></circle><circle r="9" class="node" id="2_6" style="fill: rgb(255, 255, 255); stroke: rgb(10, 10, 10); opacity: 1;" cx="1041" cy="471"></circle><circle r="9" class="node" id="2_7" style="fill: rgb(255, 255, 255); stroke: rgb(10, 10, 10); opacity: 1;" cx="1041" cy="489"></circle><circle r="9" class="node" id="2_8" style="fill: rgb(255, 255, 255); stroke: rgb(10, 10, 10); opacity: 1;" cx="1041" cy="507"></circle><circle r="9" class="node" id="2_9" style="fill: rgb(255, 255, 255); stroke: rgb(10, 10, 10); opacity: 1;" cx="1041" cy="525"></circle><circle r="9" class="node" id="2_10" style="fill: rgb(255, 255, 255); stroke: rgb(10, 10, 10);" cx="1041" cy="543"></circle><circle r="9" class="node" id="3_0" style="fill: rgb(255, 255, 255); stroke: rgb(10, 10, 10); opacity: 1;" cx="1194" cy="417"></circle><text class="text" dy=".35em" style="font-size: 12px;" x="700" y="599">Input Layer ∈ ℝ¹³</text><text class="text" dy=".35em" style="font-size: 12px;" x="853" y="599">Hidden Layer ∈ ℝ⁵</text><text class="text" dy=".35em" style="font-size: 12px;" x="1006" y="599">Hidden Layer ∈ ℝ¹¹</text><text class="text" dy=".35em" style="font-size: 12px;" x="1159" y="599">Hidden Layer ∈ ℝ⁵</text><circle r="9" class="node" id="3_1" style="fill: rgb(255, 255, 255); stroke: rgb(10, 10, 10); opacity: 1;" cx="1194" cy="435"></circle><circle r="9" class="node" id="3_2" style="fill: rgb(255, 255, 255); stroke: rgb(10, 10, 10); opacity: 1;" cx="1194" cy="453"></circle><circle r="9" class="node" id="3_3" style="fill: rgb(255, 255, 255); stroke: rgb(10, 10, 10); opacity: 1;" cx="1194" cy="471"></circle><circle r="9" class="node" id="3_4" style="fill: rgb(255, 255, 255); stroke: rgb(10, 10, 10); opacity: 1;" cx="1194" cy="489"></circle><circle r="9" class="node" id="4_0" style="fill: rgb(255, 255, 255); stroke: rgb(10, 10, 10); opacity: 1;" cx="1347" cy="444"></circle><text class="text" dy=".35em" style="font-size: 12px;" x="1312" y="599">Output Layer ∈ ℝ²</text><circle r="9" class="node" id="4_1" style="fill: rgb(255, 255, 255); stroke: rgb(10, 10, 10); opacity: 1;" cx="1347" cy="462"></circle></g><defs><marker id="arrow" viewBox="0 -5 10 10" markerWidth="7" markerHeight="7" orient="auto" refX="37.2"><path d="M0,-5L10,0L0,5" style="stroke: rgb(80, 80, 80); fill: rgb(80, 80, 80);"></path></marker></defs></svg>